<svg width="384" height="512" xmlns="http://www.w3.org/2000/svg" viewBox="0 0 384 512" xmlns:xlink="http://www.w3.org/1999/xlink"><rect x="0" y="0" height="512" width="384" fill="grey"></rect>,<rect x="9.1875" y="9.1875" width="22.25" height="22.25" fill="red" rx="8" ry="8"></rect>,<rect x="40.4375" y="9.1875" width="22.25" height="22.25" fill="red" rx="8" ry="8"></rect>,<rect x="71.6875" y="9.1875" width="22.25" height="22.25" fill="red" rx="8" ry="8"></rect>,<rect x="102.9375" y="9.1875" width="22.25" height="22.25" fill="red" rx="8" ry="8"></rect>,<rect x="134.1875" y="9.1875" width="22.25" height="22.25" fill="red" rx="8" ry="8"></rect>,<rect x="165.4375" y="9.1875" width="22.25" height="22.25" fill="red" rx="8" ry="8"></rect>,<rect x="196.6875" y="9.1875" width="22.25" height="22.25" fill="red" rx="8" ry="8"></rect>,<rect x="227.9375" y="9.1875" width="22.25" height="22.25" fill="red" rx="8" ry="8"></rect>,<rect x="259.1875" y="9.1875" width="22.25" height="22.25" fill="red" rx="8" ry="8"></rect>,<rect x="290.4375" y="9.1875" width="22.25" height="22.25" fill="red" rx="8" ry="8"></rect>,<rect x="321.6875" y="9.1875" width="22.25" height="22.25" fill="red" rx="8" ry="8"></rect>,<rect x="352.9375" y="9.1875" width="22.25" height="22.25" fill="red" rx="8" ry="8"></rect>,<rect x="9.1875" y="40.4375" width="22.25" height="22.25" fill="red" rx="8" ry="8"></rect>,<rect x="40.4375" y="40.4375" width="22.25" height="22.25" fill="red" rx="8" ry="8"></rect>,<rect x="71.6875" y="40.4375" width="22.25" height="22.25" fill="red" rx="8" ry="8"></rect>,<rect x="102.9375" y="40.4375" width="22.25" height="22.25" fill="red" rx="8" ry="8"></rect>,<rect x="134.1875" y="40.4375" width="22.25" height="22.25" fill="red" rx="8" ry="8"></rect>,<rect x="165.4375" y="40.4375" width="22.25" height="22.25" fill="red" rx="8" ry="8"></rect>,<rect x="196.6875" y="40.4375" width="22.25" height="22.25" fill="red" rx="8" ry="8"></rect>,<rect x="227.9375" y="40.4375" width="22.25" height="22.25" fill="red" rx="8" ry="8"></rect>,<rect x="259.1875" y="40.4375" width="22.25" height="22.25" fill="red" rx="8" ry="8"></rect>,<rect x="290.4375" y="40.4375" width="22.25" height="22.25" fill="red" rx="8" ry="8"></rect>,<rect x="321.6875" y="40.4375" width="22.25" height="22.25" fill="red" rx="8" ry="8"></rect>,<rect x="352.9375" y="40.4375" width="22.25" height="22.25" fill="red" rx="8" ry="8"></rect>,<rect x="9.1875" y="71.6875" width="22.25" height="22.25" fill="red" rx="8" ry="8"></rect>,<rect x="40.4375" y="71.6875" width="22.25" height="22.25" fill="red" rx="8" ry="8"></rect>,<rect x="71.6875" y="71.6875" width="22.25" height="22.25" fill="red" rx="8" ry="8"></rect>,<rect x="102.9375" y="71.6875" width="22.25" height="22.25" fill="red" rx="8" ry="8"></rect>,<rect x="134.1875" y="71.6875" width="22.25" height="22.25" fill="red" rx="8" ry="8"></rect>,<rect x="165.4375" y="71.6875" width="22.25" height="22.25" fill="red" rx="8" ry="8"></rect>,<rect x="196.6875" y="71.6875" width="22.25" height="22.25" fill="red" rx="8" ry="8"></rect>,<rect x="227.9375" y="71.6875" width="22.25" height="22.25" fill="red" rx="8" ry="8"></rect>,<rect x="259.1875" y="71.6875" width="22.25" height="22.25" fill="red" rx="8" ry="8"></rect>,<rect x="290.4375" y="71.6875" width="22.25" height="22.25" fill="red" rx="8" ry="8"></rect>,<rect x="321.6875" y="71.6875" width="22.25" height="22.25" fill="red" rx="8" ry="8"></rect>,<rect x="352.9375" y="71.6875" width="22.25" height="22.25" fill="red" rx="8" ry="8"></rect>,<rect x="9.1875" y="102.9375" width="22.25" height="22.25" fill="red" rx="8" ry="8"></rect>,<rect x="40.4375" y="102.9375" width="22.25" height="22.25" fill="red" rx="8" ry="8"></rect>,<rect x="71.6875" y="102.9375" width="22.25" height="22.25" fill="red" rx="8" ry="8"></rect>,<rect x="102.9375" y="102.9375" width="22.25" height="22.25" fill="red" rx="8" ry="8"></rect>,<rect x="134.1875" y="102.9375" width="22.25" height="22.25" fill="red" rx="8" ry="8"></rect>,<rect x="165.4375" y="102.9375" width="22.25" height="22.25" fill="red" rx="8" ry="8"></rect>,<rect x="196.6875" y="102.9375" width="22.25" height="22.25" fill="red" rx="8" ry="8"></rect>,<rect x="227.9375" y="102.9375" width="22.25" height="22.25" fill="red" rx="8" ry="8"></rect>,<rect x="259.1875" y="102.9375" width="22.25" height="22.25" fill="red" rx="8" ry="8"></rect>,<rect x="290.4375" y="102.9375" width="22.25" height="22.25" fill="red" rx="8" ry="8"></rect>,<rect x="321.6875" y="102.9375" width="22.25" height="22.25" fill="red" rx="8" ry="8"></rect>,<rect x="352.9375" y="102.9375" width="22.25" height="22.25" fill="red" rx="8" ry="8"></rect>,<rect x="9.1875" y="134.1875" width="22.25" height="22.25" fill="red" rx="8" ry="8"></rect>,<rect x="40.4375" y="134.1875" width="22.25" height="22.25" fill="red" rx="8" ry="8"></rect>,<rect x="71.6875" y="134.1875" width="22.25" height="22.25" fill="red" rx="8" ry="8"></rect>,<rect x="102.9375" y="134.1875" width="22.25" height="22.25" fill="red" rx="8" ry="8"></rect>,<rect x="134.1875" y="134.1875" width="22.25" height="22.25" fill="red" rx="8" ry="8"></rect>,<rect x="165.4375" y="134.1875" width="22.25" height="22.25" fill="red" rx="8" ry="8"></rect>,<rect x="196.6875" y="134.1875" width="22.25" height="22.25" fill="red" rx="8" ry="8"></rect>,<rect x="227.9375" y="134.1875" width="22.25" height="22.25" fill="red" rx="8" ry="8"></rect>,<rect x="259.1875" y="134.1875" width="22.25" height="22.25" fill="red" rx="8" ry="8"></rect>,<rect x="290.4375" y="134.1875" width="22.25" height="22.25" fill="red" rx="8" ry="8"></rect>,<rect x="321.6875" y="134.1875" width="22.25" height="22.25" fill="red" rx="8" ry="8"></rect>,<rect x="352.9375" y="134.1875" width="22.25" height="22.25" fill="red" rx="8" ry="8"></rect>,<rect x="9.1875" y="165.4375" width="22.25" height="22.25" fill="red" rx="8" ry="8"></rect>,<rect x="40.4375" y="165.4375" width="22.25" height="22.25" fill="red" rx="8" ry="8"></rect>,<rect x="71.6875" y="165.4375" width="22.25" height="22.25" fill="red" rx="8" ry="8"></rect>,<rect x="102.9375" y="165.4375" width="22.25" height="22.25" fill="red" rx="8" ry="8"></rect>,<rect x="134.1875" y="165.4375" width="22.25" height="22.25" fill="red" rx="8" ry="8"></rect>,<rect x="165.4375" y="165.4375" width="22.25" height="22.25" fill="red" rx="8" ry="8"></rect>,<rect x="196.6875" y="165.4375" width="22.25" height="22.25" fill="red" rx="8" ry="8"></rect>,<rect x="227.9375" y="165.4375" width="22.25" height="22.25" fill="red" rx="8" ry="8"></rect>,<rect x="259.1875" y="165.4375" width="22.25" height="22.25" fill="red" rx="8" ry="8"></rect>,<rect x="290.4375" y="165.4375" width="22.25" height="22.25" fill="red" rx="8" ry="8"></rect>,<rect x="321.6875" y="165.4375" width="22.25" height="22.25" fill="red" rx="8" ry="8"></rect>,<rect x="352.9375" y="165.4375" width="22.25" height="22.25" fill="red" rx="8" ry="8"></rect>,<rect x="9.1875" y="196.6875" width="22.25" height="22.25" fill="red" rx="8" ry="8"></rect>,<rect x="40.4375" y="196.6875" width="22.25" height="22.25" fill="red" rx="8" ry="8"></rect>,<rect x="71.6875" y="196.6875" width="22.25" height="22.25" fill="red" rx="8" ry="8"></rect>,<rect x="102.9375" y="196.6875" width="22.25" height="22.25" fill="red" rx="8" ry="8"></rect>,<rect x="134.1875" y="196.6875" width="22.25" height="22.25" fill="red" rx="8" ry="8"></rect>,<rect x="165.4375" y="196.6875" width="22.25" height="22.25" fill="red" rx="8" ry="8"></rect>,<rect x="196.6875" y="196.6875" width="22.25" height="22.25" fill="red" rx="8" ry="8"></rect>,<rect x="227.9375" y="196.6875" width="22.25" height="22.25" fill="red" rx="8" ry="8"></rect>,<rect x="259.1875" y="196.6875" width="22.25" height="22.25" fill="red" rx="8" ry="8"></rect>,<rect x="290.4375" y="196.6875" width="22.25" height="22.25" fill="red" rx="8" ry="8"></rect>,<rect x="321.6875" y="196.6875" width="22.25" height="22.25" fill="red" rx="8" ry="8"></rect>,<rect x="352.9375" y="196.6875" width="22.25" height="22.25" fill="red" rx="8" ry="8"></rect>,<rect x="9.1875" y="227.9375" width="22.25" height="22.25" fill="red" rx="8" ry="8"></rect>,<rect x="40.4375" y="227.9375" width="22.25" height="22.25" fill="red" rx="8" ry="8"></rect>,<rect x="71.6875" y="227.9375" width="22.25" height="22.25" fill="red" rx="8" ry="8"></rect>,<rect x="102.9375" y="227.9375" width="22.25" height="22.25" fill="red" rx="8" ry="8"></rect>,<rect x="134.1875" y="227.9375" width="22.25" height="22.25" fill="red" rx="8" ry="8"></rect>,<rect x="165.4375" y="227.9375" width="22.25" height="22.25" fill="red" rx="8" ry="8"></rect>,<rect x="196.6875" y="227.9375" width="22.25" height="22.25" fill="red" rx="8" ry="8"></rect>,<rect x="227.9375" y="227.9375" width="22.25" height="22.25" fill="red" rx="8" ry="8"></rect>,<rect x="259.1875" y="227.9375" width="22.25" height="22.25" fill="red" rx="8" ry="8"></rect>,<rect x="290.4375" y="227.9375" width="22.25" height="22.25" fill="red" rx="8" ry="8"></rect>,<rect x="321.6875" y="227.9375" width="22.25" height="22.25" fill="red" rx="8" ry="8"></rect>,<rect x="352.9375" y="227.9375" width="22.25" height="22.25" fill="red" rx="8" ry="8"></rect>,<rect x="9.1875" y="259.1875" width="22.25" height="22.25" fill="red" rx="8" ry="8"></rect>,<rect x="40.4375" y="259.1875" width="22.25" height="22.25" fill="red" rx="8" ry="8"></rect>,<rect x="71.6875" y="259.1875" width="22.25" height="22.25" fill="red" rx="8" ry="8"></rect>,<rect x="102.9375" y="259.1875" width="22.25" height="22.25" fill="red" rx="8" ry="8"></rect>,<rect x="134.1875" y="259.1875" width="22.25" height="22.25" fill="red" rx="8" ry="8"></rect>,<rect x="165.4375" y="259.1875" width="22.25" height="22.25" fill="red" rx="8" ry="8"></rect>,<rect x="196.6875" y="259.1875" width="22.25" height="22.25" fill="red" rx="8" ry="8"></rect>,<rect x="227.9375" y="259.1875" width="22.25" height="22.25" fill="red" rx="8" ry="8"></rect>,<rect x="259.1875" y="259.1875" width="22.25" height="22.25" fill="red" rx="8" ry="8"></rect>,<rect x="290.4375" y="259.1875" width="22.25" height="22.25" fill="red" rx="8" ry="8"></rect>,<rect x="321.6875" y="259.1875" width="22.25" height="22.25" fill="red" rx="8" ry="8"></rect>,<rect x="352.9375" y="259.1875" width="22.25" height="22.25" fill="red" rx="8" ry="8"></rect>,<rect x="9.1875" y="290.4375" width="22.25" height="22.25" fill="red" rx="8" ry="8"></rect>,<rect x="40.4375" y="290.4375" width="22.25" height="22.25" fill="red" rx="8" ry="8"></rect>,<rect x="71.6875" y="290.4375" width="22.25" height="22.25" fill="red" rx="8" ry="8"></rect>,<rect x="102.9375" y="290.4375" width="22.25" height="22.25" fill="red" rx="8" ry="8"></rect>,<rect x="134.1875" y="290.4375" width="22.25" height="22.25" fill="red" rx="8" ry="8"></rect>,<rect x="165.4375" y="290.4375" width="22.25" height="22.25" fill="red" rx="8" ry="8"></rect>,<rect x="196.6875" y="290.4375" width="22.25" height="22.25" fill="red" rx="8" ry="8"></rect>,<rect x="227.9375" y="290.4375" width="22.25" height="22.25" fill="red" rx="8" ry="8"></rect>,<rect x="259.1875" y="290.4375" width="22.25" height="22.25" fill="red" rx="8" ry="8"></rect>,<rect x="290.4375" y="290.4375" width="22.25" height="22.25" fill="red" rx="8" ry="8"></rect>,<rect x="321.6875" y="290.4375" width="22.25" height="22.25" fill="red" rx="8" ry="8"></rect>,<rect x="352.9375" y="290.4375" width="22.25" height="22.25" fill="red" rx="8" ry="8"></rect>,<rect x="9.1875" y="321.6875" width="22.25" height="22.25" fill="red" rx="8" ry="8"></rect>,<rect x="40.4375" y="321.6875" width="22.25" height="22.25" fill="red" rx="8" ry="8"></rect>,<rect x="71.6875" y="321.6875" width="22.25" height="22.25" fill="red" rx="8" ry="8"></rect>,<rect x="102.9375" y="321.6875" width="22.25" height="22.25" fill="red" rx="8" ry="8"></rect>,<rect x="134.1875" y="321.6875" width="22.25" height="22.25" fill="red" rx="8" ry="8"></rect>,<rect x="165.4375" y="321.6875" width="22.25" height="22.25" fill="red" rx="8" ry="8"></rect>,<rect x="196.6875" y="321.6875" width="22.25" height="22.25" fill="red" rx="8" ry="8"></rect>,<rect x="227.9375" y="321.6875" width="22.25" height="22.25" fill="red" rx="8" ry="8"></rect>,<rect x="259.1875" y="321.6875" width="22.25" height="22.25" fill="red" rx="8" ry="8"></rect>,<rect x="290.4375" y="321.6875" width="22.25" height="22.25" fill="red" rx="8" ry="8"></rect>,<rect x="321.6875" y="321.6875" width="22.25" height="22.25" fill="red" rx="8" ry="8"></rect>,<rect x="352.9375" y="321.6875" width="22.25" height="22.25" fill="red" rx="8" ry="8"></rect>,<rect x="9.1875" y="352.9375" width="22.25" height="22.25" fill="red" rx="8" ry="8"></rect>,<rect x="40.4375" y="352.9375" width="22.25" height="22.25" fill="red" rx="8" ry="8"></rect>,<rect x="71.6875" y="352.9375" width="22.25" height="22.25" fill="red" rx="8" ry="8"></rect>,<rect x="102.9375" y="352.9375" width="22.25" height="22.25" fill="red" rx="8" ry="8"></rect>,<rect x="134.1875" y="352.9375" width="22.25" height="22.25" fill="red" rx="8" ry="8"></rect>,<rect x="165.4375" y="352.9375" width="22.25" height="22.25" fill="red" rx="8" ry="8"></rect>,<rect x="196.6875" y="352.9375" width="22.25" height="22.25" fill="red" rx="8" ry="8"></rect>,<rect x="227.9375" y="352.9375" width="22.25" height="22.25" fill="red" rx="8" ry="8"></rect>,<rect x="259.1875" y="352.9375" width="22.25" height="22.25" fill="red" rx="8" ry="8"></rect>,<rect x="290.4375" y="352.9375" width="22.25" height="22.25" fill="red" rx="8" ry="8"></rect>,<rect x="321.6875" y="352.9375" width="22.25" height="22.25" fill="red" rx="8" ry="8"></rect>,<rect x="352.9375" y="352.9375" width="22.25" height="22.25" fill="red" rx="8" ry="8"></rect>,<rect x="9.1875" y="384.1875" width="22.25" height="22.25" fill="red" rx="8" ry="8"></rect>,<rect x="40.4375" y="384.1875" width="22.25" height="22.25" fill="red" rx="8" ry="8"></rect>,<rect x="71.6875" y="384.1875" width="22.25" height="22.25" fill="red" rx="8" ry="8"></rect>,<rect x="102.9375" y="384.1875" width="22.25" height="22.25" fill="red" rx="8" ry="8"></rect>,<rect x="134.1875" y="384.1875" width="22.25" height="22.25" fill="red" rx="8" ry="8"></rect>,<rect x="165.4375" y="384.1875" width="22.25" height="22.25" fill="red" rx="8" ry="8"></rect>,<rect x="196.6875" y="384.1875" width="22.25" height="22.25" fill="red" rx="8" ry="8"></rect>,<rect x="227.9375" y="384.1875" width="22.25" height="22.25" fill="red" rx="8" ry="8"></rect>,<rect x="259.1875" y="384.1875" width="22.25" height="22.25" fill="red" rx="8" ry="8"></rect>,<rect x="290.4375" y="384.1875" width="22.25" height="22.25" fill="red" rx="8" ry="8"></rect>,<rect x="321.6875" y="384.1875" width="22.25" height="22.25" fill="red" rx="8" ry="8"></rect>,<rect x="352.9375" y="384.1875" width="22.25" height="22.25" fill="red" rx="8" ry="8"></rect>,<rect x="9.1875" y="415.4375" width="22.25" height="22.25" fill="red" rx="8" ry="8"></rect>,<rect x="40.4375" y="415.4375" width="22.25" height="22.25" fill="red" rx="8" ry="8"></rect>,<rect x="71.6875" y="415.4375" width="22.25" height="22.25" fill="red" rx="8" ry="8"></rect>,<rect x="102.9375" y="415.4375" width="22.25" height="22.25" fill="red" rx="8" ry="8"></rect>,<rect x="134.1875" y="415.4375" width="22.25" height="22.25" fill="red" rx="8" ry="8"></rect>,<rect x="165.4375" y="415.4375" width="22.25" height="22.25" fill="red" rx="8" ry="8"></rect>,<rect x="196.6875" y="415.4375" width="22.25" height="22.25" fill="red" rx="8" ry="8"></rect>,<rect x="227.9375" y="415.4375" width="22.25" height="22.25" fill="red" rx="8" ry="8"></rect>,<rect x="259.1875" y="415.4375" width="22.25" height="22.25" fill="red" rx="8" ry="8"></rect>,<rect x="290.4375" y="415.4375" width="22.25" height="22.25" fill="red" rx="8" ry="8"></rect>,<rect x="321.6875" y="415.4375" width="22.25" height="22.25" fill="red" rx="8" ry="8"></rect>,<rect x="352.9375" y="415.4375" width="22.25" height="22.25" fill="red" rx="8" ry="8"></rect>,<rect x="9.1875" y="446.6875" width="22.25" height="22.25" fill="red" rx="8" ry="8"></rect>,<rect x="40.4375" y="446.6875" width="22.25" height="22.25" fill="red" rx="8" ry="8"></rect>,<rect x="71.6875" y="446.6875" width="22.25" height="22.25" fill="red" rx="8" ry="8"></rect>,<rect x="102.9375" y="446.6875" width="22.25" height="22.25" fill="red" rx="8" ry="8"></rect>,<rect x="134.1875" y="446.6875" width="22.25" height="22.25" fill="red" rx="8" ry="8"></rect>,<rect x="165.4375" y="446.6875" width="22.25" height="22.25" fill="red" rx="8" ry="8"></rect>,<rect x="196.6875" y="446.6875" width="22.25" height="22.25" fill="red" rx="8" ry="8"></rect>,<rect x="227.9375" y="446.6875" width="22.25" height="22.25" fill="red" rx="8" ry="8"></rect>,<rect x="259.1875" y="446.6875" width="22.25" height="22.25" fill="red" rx="8" ry="8"></rect>,<rect x="290.4375" y="446.6875" width="22.25" height="22.25" fill="red" rx="8" ry="8"></rect>,<rect x="321.6875" y="446.6875" width="22.25" height="22.25" fill="red" rx="8" ry="8"></rect>,<rect x="352.9375" y="446.6875" width="22.25" height="22.25" fill="red" rx="8" ry="8"></rect>,<rect x="9.1875" y="477.9375" width="22.25" height="22.25" fill="red" rx="8" ry="8"></rect>,<rect x="40.4375" y="477.9375" width="22.25" height="22.25" fill="red" rx="8" ry="8"></rect>,<rect x="71.6875" y="477.9375" width="22.25" height="22.25" fill="red" rx="8" ry="8"></rect>,<rect x="102.9375" y="477.9375" width="22.25" height="22.25" fill="red" rx="8" ry="8"></rect>,<rect x="134.1875" y="477.9375" width="22.25" height="22.25" fill="red" rx="8" ry="8"></rect>,<rect x="165.4375" y="477.9375" width="22.25" height="22.25" fill="red" rx="8" ry="8"></rect>,<rect x="196.6875" y="477.9375" width="22.25" height="22.25" fill="red" rx="8" ry="8"></rect>,<rect x="227.9375" y="477.9375" width="22.25" height="22.25" fill="red" rx="8" ry="8"></rect>,<rect x="259.1875" y="477.9375" width="22.25" height="22.25" fill="red" rx="8" ry="8"></rect>,<rect x="290.4375" y="477.9375" width="22.25" height="22.25" fill="red" rx="8" ry="8"></rect>,<rect x="321.6875" y="477.9375" width="22.25" height="22.25" fill="red" rx="8" ry="8"></rect>,<rect x="352.9375" y="477.9375" width="22.25" height="22.25" fill="red" rx="8" ry="8"></rect></svg>