<svg width="384" height="512" xmlns="http://www.w3.org/2000/svg" viewBox="0 0 384 512" xmlns:xlink="http://www.w3.org/1999/xlink"><rect x="0" y="0" height="512" width="384" fill="grey"></rect>,<rect x="6.166666666666664" y="6.166666666666664" width="36" height="36" fill="red" rx="8" ry="8"></rect>,<rect x="48.166666666666664" y="6.166666666666664" width="36" height="36" fill="red" rx="8" ry="8"></rect>,<rect x="90.16666666666666" y="6.166666666666664" width="36" height="36" fill="red" rx="8" ry="8"></rect>,<rect x="132.16666666666666" y="6.166666666666664" width="36" height="36" fill="red" rx="8" ry="8"></rect>,<rect x="174.16666666666666" y="6.166666666666664" width="36" height="36" fill="red" rx="8" ry="8"></rect>,<rect x="216.16666666666666" y="6.166666666666664" width="36" height="36" fill="red" rx="8" ry="8"></rect>,<rect x="258.1666666666667" y="6.166666666666664" width="36" height="36" fill="red" rx="8" ry="8"></rect>,<rect x="300.1666666666667" y="6.166666666666664" width="36" height="36" fill="red" rx="8" ry="8"></rect>,<rect x="342.1666666666667" y="6.166666666666664" width="36" height="36" fill="red" rx="8" ry="8"></rect>,<rect x="6.166666666666664" y="48.166666666666664" width="36" height="36" fill="red" rx="8" ry="8"></rect>,<rect x="48.166666666666664" y="48.166666666666664" width="36" height="36" fill="red" rx="8" ry="8"></rect>,<rect x="90.16666666666666" y="48.166666666666664" width="36" height="36" fill="red" rx="8" ry="8"></rect>,<rect x="132.16666666666666" y="48.166666666666664" width="36" height="36" fill="red" rx="8" ry="8"></rect>,<rect x="174.16666666666666" y="48.166666666666664" width="36" height="36" fill="red" rx="8" ry="8"></rect>,<rect x="216.16666666666666" y="48.166666666666664" width="36" height="36" fill="red" rx="8" ry="8"></rect>,<rect x="258.1666666666667" y="48.166666666666664" width="36" height="36" fill="red" rx="8" ry="8"></rect>,<rect x="300.1666666666667" y="48.166666666666664" width="36" height="36" fill="red" rx="8" ry="8"></rect>,<rect x="342.1666666666667" y="48.166666666666664" width="36" height="36" fill="red" rx="8" ry="8"></rect>,<rect x="6.166666666666664" y="90.16666666666666" width="36" height="36" fill="red" rx="8" ry="8"></rect>,<rect x="48.166666666666664" y="90.16666666666666" width="36" height="36" fill="red" rx="8" ry="8"></rect>,<rect x="90.16666666666666" y="90.16666666666666" width="36" height="36" fill="red" rx="8" ry="8"></rect>,<rect x="132.16666666666666" y="90.16666666666666" width="36" height="36" fill="red" rx="8" ry="8"></rect>,<rect x="174.16666666666666" y="90.16666666666666" width="36" height="36" fill="red" rx="8" ry="8"></rect>,<rect x="216.16666666666666" y="90.16666666666666" width="36" height="36" fill="red" rx="8" ry="8"></rect>,<rect x="258.1666666666667" y="90.16666666666666" width="36" height="36" fill="red" rx="8" ry="8"></rect>,<rect x="300.1666666666667" y="90.16666666666666" width="36" height="36" fill="red" rx="8" ry="8"></rect>,<rect x="342.1666666666667" y="90.16666666666666" width="36" height="36" fill="red" rx="8" ry="8"></rect>,<rect x="6.166666666666664" y="132.16666666666666" width="36" height="36" fill="red" rx="8" ry="8"></rect>,<rect x="48.166666666666664" y="132.16666666666666" width="36" height="36" fill="red" rx="8" ry="8"></rect>,<rect x="90.16666666666666" y="132.16666666666666" width="36" height="36" fill="red" rx="8" ry="8"></rect>,<rect x="132.16666666666666" y="132.16666666666666" width="36" height="36" fill="red" rx="8" ry="8"></rect>,<rect x="174.16666666666666" y="132.16666666666666" width="36" height="36" fill="red" rx="8" ry="8"></rect>,<rect x="216.16666666666666" y="132.16666666666666" width="36" height="36" fill="red" rx="8" ry="8"></rect>,<rect x="258.1666666666667" y="132.16666666666666" width="36" height="36" fill="red" rx="8" ry="8"></rect>,<rect x="300.1666666666667" y="132.16666666666666" width="36" height="36" fill="red" rx="8" ry="8"></rect>,<rect x="342.1666666666667" y="132.16666666666666" width="36" height="36" fill="red" rx="8" ry="8"></rect>,<rect x="6.166666666666664" y="174.16666666666666" width="36" height="36" fill="red" rx="8" ry="8"></rect>,<rect x="48.166666666666664" y="174.16666666666666" width="36" height="36" fill="red" rx="8" ry="8"></rect>,<rect x="90.16666666666666" y="174.16666666666666" width="36" height="36" fill="red" rx="8" ry="8"></rect>,<rect x="132.16666666666666" y="174.16666666666666" width="36" height="36" fill="red" rx="8" ry="8"></rect>,<rect x="174.16666666666666" y="174.16666666666666" width="36" height="36" fill="red" rx="8" ry="8"></rect>,<rect x="216.16666666666666" y="174.16666666666666" width="36" height="36" fill="red" rx="8" ry="8"></rect>,<rect x="258.1666666666667" y="174.16666666666666" width="36" height="36" fill="red" rx="8" ry="8"></rect>,<rect x="300.1666666666667" y="174.16666666666666" width="36" height="36" fill="red" rx="8" ry="8"></rect>,<rect x="342.1666666666667" y="174.16666666666666" width="36" height="36" fill="red" rx="8" ry="8"></rect>,<rect x="6.166666666666664" y="216.16666666666666" width="36" height="36" fill="red" rx="8" ry="8"></rect>,<rect x="48.166666666666664" y="216.16666666666666" width="36" height="36" fill="red" rx="8" ry="8"></rect>,<rect x="90.16666666666666" y="216.16666666666666" width="36" height="36" fill="red" rx="8" ry="8"></rect>,<rect x="132.16666666666666" y="216.16666666666666" width="36" height="36" fill="red" rx="8" ry="8"></rect>,<rect x="174.16666666666666" y="216.16666666666666" width="36" height="36" fill="red" rx="8" ry="8"></rect>,<rect x="216.16666666666666" y="216.16666666666666" width="36" height="36" fill="red" rx="8" ry="8"></rect>,<rect x="258.1666666666667" y="216.16666666666666" width="36" height="36" fill="red" rx="8" ry="8"></rect>,<rect x="300.1666666666667" y="216.16666666666666" width="36" height="36" fill="red" rx="8" ry="8"></rect>,<rect x="342.1666666666667" y="216.16666666666666" width="36" height="36" fill="red" rx="8" ry="8"></rect>,<rect x="6.166666666666664" y="258.1666666666667" width="36" height="36" fill="red" rx="8" ry="8"></rect>,<rect x="48.166666666666664" y="258.1666666666667" width="36" height="36" fill="red" rx="8" ry="8"></rect>,<rect x="90.16666666666666" y="258.1666666666667" width="36" height="36" fill="red" rx="8" ry="8"></rect>,<rect x="132.16666666666666" y="258.1666666666667" width="36" height="36" fill="red" rx="8" ry="8"></rect>,<rect x="174.16666666666666" y="258.1666666666667" width="36" height="36" fill="red" rx="8" ry="8"></rect>,<rect x="216.16666666666666" y="258.1666666666667" width="36" height="36" fill="red" rx="8" ry="8"></rect>,<rect x="258.1666666666667" y="258.1666666666667" width="36" height="36" fill="red" rx="8" ry="8"></rect>,<rect x="300.1666666666667" y="258.1666666666667" width="36" height="36" fill="red" rx="8" ry="8"></rect>,<rect x="342.1666666666667" y="258.1666666666667" width="36" height="36" fill="red" rx="8" ry="8"></rect>,<rect x="6.166666666666664" y="300.1666666666667" width="36" height="36" fill="red" rx="8" ry="8"></rect>,<rect x="48.166666666666664" y="300.1666666666667" width="36" height="36" fill="red" rx="8" ry="8"></rect>,<rect x="90.16666666666666" y="300.1666666666667" width="36" height="36" fill="red" rx="8" ry="8"></rect>,<rect x="132.16666666666666" y="300.1666666666667" width="36" height="36" fill="red" rx="8" ry="8"></rect>,<rect x="174.16666666666666" y="300.1666666666667" width="36" height="36" fill="red" rx="8" ry="8"></rect>,<rect x="216.16666666666666" y="300.1666666666667" width="36" height="36" fill="red" rx="8" ry="8"></rect>,<rect x="258.1666666666667" y="300.1666666666667" width="36" height="36" fill="red" rx="8" ry="8"></rect>,<rect x="300.1666666666667" y="300.1666666666667" width="36" height="36" fill="red" rx="8" ry="8"></rect>,<rect x="342.1666666666667" y="300.1666666666667" width="36" height="36" fill="red" rx="8" ry="8"></rect>,<rect x="6.166666666666664" y="342.1666666666667" width="36" height="36" fill="red" rx="8" ry="8"></rect>,<rect x="48.166666666666664" y="342.1666666666667" width="36" height="36" fill="red" rx="8" ry="8"></rect>,<rect x="90.16666666666666" y="342.1666666666667" width="36" height="36" fill="red" rx="8" ry="8"></rect>,<rect x="132.16666666666666" y="342.1666666666667" width="36" height="36" fill="red" rx="8" ry="8"></rect>,<rect x="174.16666666666666" y="342.1666666666667" width="36" height="36" fill="red" rx="8" ry="8"></rect>,<rect x="216.16666666666666" y="342.1666666666667" width="36" height="36" fill="red" rx="8" ry="8"></rect>,<rect x="258.1666666666667" y="342.1666666666667" width="36" height="36" fill="red" rx="8" ry="8"></rect>,<rect x="300.1666666666667" y="342.1666666666667" width="36" height="36" fill="red" rx="8" ry="8"></rect>,<rect x="342.1666666666667" y="342.1666666666667" width="36" height="36" fill="red" rx="8" ry="8"></rect>,<rect x="6.166666666666664" y="384.1666666666667" width="36" height="36" fill="red" rx="8" ry="8"></rect>,<rect x="48.166666666666664" y="384.1666666666667" width="36" height="36" fill="red" rx="8" ry="8"></rect>,<rect x="90.16666666666666" y="384.1666666666667" width="36" height="36" fill="red" rx="8" ry="8"></rect>,<rect x="132.16666666666666" y="384.1666666666667" width="36" height="36" fill="red" rx="8" ry="8"></rect>,<rect x="174.16666666666666" y="384.1666666666667" width="36" height="36" fill="red" rx="8" ry="8"></rect>,<rect x="216.16666666666666" y="384.1666666666667" width="36" height="36" fill="red" rx="8" ry="8"></rect>,<rect x="258.1666666666667" y="384.1666666666667" width="36" height="36" fill="red" rx="8" ry="8"></rect>,<rect x="300.1666666666667" y="384.1666666666667" width="36" height="36" fill="red" rx="8" ry="8"></rect>,<rect x="342.1666666666667" y="384.1666666666667" width="36" height="36" fill="red" rx="8" ry="8"></rect>,<rect x="6.166666666666664" y="426.1666666666667" width="36" height="36" fill="red" rx="8" ry="8"></rect>,<rect x="48.166666666666664" y="426.1666666666667" width="36" height="36" fill="red" rx="8" ry="8"></rect>,<rect x="90.16666666666666" y="426.1666666666667" width="36" height="36" fill="red" rx="8" ry="8"></rect>,<rect x="132.16666666666666" y="426.1666666666667" width="36" height="36" fill="red" rx="8" ry="8"></rect>,<rect x="174.16666666666666" y="426.1666666666667" width="36" height="36" fill="red" rx="8" ry="8"></rect>,<rect x="216.16666666666666" y="426.1666666666667" width="36" height="36" fill="red" rx="8" ry="8"></rect>,<rect x="258.1666666666667" y="426.1666666666667" width="36" height="36" fill="red" rx="8" ry="8"></rect>,<rect x="300.1666666666667" y="426.1666666666667" width="36" height="36" fill="red" rx="8" ry="8"></rect>,<rect x="342.1666666666667" y="426.1666666666667" width="36" height="36" fill="red" rx="8" ry="8"></rect>,<rect x="6.166666666666664" y="468.1666666666667" width="36" height="36" fill="red" rx="8" ry="8"></rect>,<rect x="48.166666666666664" y="468.1666666666667" width="36" height="36" fill="red" rx="8" ry="8"></rect>,<rect x="90.16666666666666" y="468.1666666666667" width="36" height="36" fill="red" rx="8" ry="8"></rect>,<rect x="132.16666666666666" y="468.1666666666667" width="36" height="36" fill="red" rx="8" ry="8"></rect>,<rect x="174.16666666666666" y="468.1666666666667" width="36" height="36" fill="red" rx="8" ry="8"></rect>,<rect x="216.16666666666666" y="468.1666666666667" width="36" height="36" fill="red" rx="8" ry="8"></rect>,<rect x="258.1666666666667" y="468.1666666666667" width="36" height="36" fill="red" rx="8" ry="8"></rect>,<rect x="300.1666666666667" y="468.1666666666667" width="36" height="36" fill="red" rx="8" ry="8"></rect>,<rect x="342.1666666666667" y="468.1666666666667" width="36" height="36" fill="red" rx="8" ry="8"></rect></svg>