<svg width="384" height="512" xmlns="http://www.w3.org/2000/svg" viewBox="0 0 384 512" xmlns:xlink="http://www.w3.org/1999/xlink"><rect x="0" y="0" height="512" width="384" fill="grey"></rect>,<rect x="9.149999999999999" y="9.149999999999999" width="16" height="16" fill="red" rx="3" ry="3"></rect>,<rect x="34.15" y="9.149999999999999" width="16" height="16" fill="red" rx="3" ry="3"></rect>,<rect x="59.15" y="9.149999999999999" width="16" height="16" fill="red" rx="3" ry="3"></rect>,<rect x="84.15" y="9.149999999999999" width="16" height="16" fill="red" rx="3" ry="3"></rect>,<rect x="109.15" y="9.149999999999999" width="16" height="16" fill="red" rx="3" ry="3"></rect>,<rect x="134.15" y="9.149999999999999" width="16" height="16" fill="red" rx="3" ry="3"></rect>,<rect x="159.15" y="9.149999999999999" width="16" height="16" fill="red" rx="3" ry="3"></rect>,<rect x="184.15" y="9.149999999999999" width="16" height="16" fill="red" rx="3" ry="3"></rect>,<rect x="209.15" y="9.149999999999999" width="16" height="16" fill="red" rx="3" ry="3"></rect>,<rect x="234.15" y="9.149999999999999" width="16" height="16" fill="red" rx="3" ry="3"></rect>,<rect x="259.15" y="9.149999999999999" width="16" height="16" fill="red" rx="3" ry="3"></rect>,<rect x="284.15" y="9.149999999999999" width="16" height="16" fill="red" rx="3" ry="3"></rect>,<rect x="309.15" y="9.149999999999999" width="16" height="16" fill="red" rx="3" ry="3"></rect>,<rect x="334.15" y="9.149999999999999" width="16" height="16" fill="red" rx="3" ry="3"></rect>,<rect x="359.15" y="9.149999999999999" width="16" height="16" fill="red" rx="3" ry="3"></rect>,<rect x="9.149999999999999" y="34.15" width="16" height="16" fill="red" rx="3" ry="3"></rect>,<rect x="34.15" y="34.15" width="16" height="16" fill="red" rx="3" ry="3"></rect>,<rect x="59.15" y="34.15" width="16" height="16" fill="red" rx="3" ry="3"></rect>,<rect x="84.15" y="34.15" width="16" height="16" fill="red" rx="3" ry="3"></rect>,<rect x="109.15" y="34.15" width="16" height="16" fill="red" rx="3" ry="3"></rect>,<rect x="134.15" y="34.15" width="16" height="16" fill="red" rx="3" ry="3"></rect>,<rect x="159.15" y="34.15" width="16" height="16" fill="red" rx="3" ry="3"></rect>,<rect x="184.15" y="34.15" width="16" height="16" fill="red" rx="3" ry="3"></rect>,<rect x="209.15" y="34.15" width="16" height="16" fill="red" rx="3" ry="3"></rect>,<rect x="234.15" y="34.15" width="16" height="16" fill="red" rx="3" ry="3"></rect>,<rect x="259.15" y="34.15" width="16" height="16" fill="red" rx="3" ry="3"></rect>,<rect x="284.15" y="34.15" width="16" height="16" fill="red" rx="3" ry="3"></rect>,<rect x="309.15" y="34.15" width="16" height="16" fill="red" rx="3" ry="3"></rect>,<rect x="334.15" y="34.15" width="16" height="16" fill="red" rx="3" ry="3"></rect>,<rect x="359.15" y="34.15" width="16" height="16" fill="red" rx="3" ry="3"></rect>,<rect x="9.149999999999999" y="59.15" width="16" height="16" fill="red" rx="3" ry="3"></rect>,<rect x="34.15" y="59.15" width="16" height="16" fill="red" rx="3" ry="3"></rect>,<rect x="59.15" y="59.15" width="16" height="16" fill="red" rx="3" ry="3"></rect>,<rect x="84.15" y="59.15" width="16" height="16" fill="red" rx="3" ry="3"></rect>,<rect x="109.15" y="59.15" width="16" height="16" fill="red" rx="3" ry="3"></rect>,<rect x="134.15" y="59.15" width="16" height="16" fill="red" rx="3" ry="3"></rect>,<rect x="159.15" y="59.15" width="16" height="16" fill="red" rx="3" ry="3"></rect>,<rect x="184.15" y="59.15" width="16" height="16" fill="red" rx="3" ry="3"></rect>,<rect x="209.15" y="59.15" width="16" height="16" fill="red" rx="3" ry="3"></rect>,<rect x="234.15" y="59.15" width="16" height="16" fill="red" rx="3" ry="3"></rect>,<rect x="259.15" y="59.15" width="16" height="16" fill="red" rx="3" ry="3"></rect>,<rect x="284.15" y="59.15" width="16" height="16" fill="red" rx="3" ry="3"></rect>,<rect x="309.15" y="59.15" width="16" height="16" fill="red" rx="3" ry="3"></rect>,<rect x="334.15" y="59.15" width="16" height="16" fill="red" rx="3" ry="3"></rect>,<rect x="359.15" y="59.15" width="16" height="16" fill="red" rx="3" ry="3"></rect>,<rect x="9.149999999999999" y="84.15" width="16" height="16" fill="red" rx="3" ry="3"></rect>,<rect x="34.15" y="84.15" width="16" height="16" fill="red" rx="3" ry="3"></rect>,<rect x="59.15" y="84.15" width="16" height="16" fill="red" rx="3" ry="3"></rect>,<rect x="84.15" y="84.15" width="16" height="16" fill="red" rx="3" ry="3"></rect>,<rect x="109.15" y="84.15" width="16" height="16" fill="red" rx="3" ry="3"></rect>,<rect x="134.15" y="84.15" width="16" height="16" fill="red" rx="3" ry="3"></rect>,<rect x="159.15" y="84.15" width="16" height="16" fill="red" rx="3" ry="3"></rect>,<rect x="184.15" y="84.15" width="16" height="16" fill="red" rx="3" ry="3"></rect>,<rect x="209.15" y="84.15" width="16" height="16" fill="red" rx="3" ry="3"></rect>,<rect x="234.15" y="84.15" width="16" height="16" fill="red" rx="3" ry="3"></rect>,<rect x="259.15" y="84.15" width="16" height="16" fill="red" rx="3" ry="3"></rect>,<rect x="284.15" y="84.15" width="16" height="16" fill="red" rx="3" ry="3"></rect>,<rect x="309.15" y="84.15" width="16" height="16" fill="red" rx="3" ry="3"></rect>,<rect x="334.15" y="84.15" width="16" height="16" fill="red" rx="3" ry="3"></rect>,<rect x="359.15" y="84.15" width="16" height="16" fill="red" rx="3" ry="3"></rect>,<rect x="9.149999999999999" y="109.15" width="16" height="16" fill="red" rx="3" ry="3"></rect>,<rect x="34.15" y="109.15" width="16" height="16" fill="red" rx="3" ry="3"></rect>,<rect x="59.15" y="109.15" width="16" height="16" fill="red" rx="3" ry="3"></rect>,<rect x="84.15" y="109.15" width="16" height="16" fill="red" rx="3" ry="3"></rect>,<rect x="109.15" y="109.15" width="16" height="16" fill="red" rx="3" ry="3"></rect>,<rect x="134.15" y="109.15" width="16" height="16" fill="red" rx="3" ry="3"></rect>,<rect x="159.15" y="109.15" width="16" height="16" fill="red" rx="3" ry="3"></rect>,<rect x="184.15" y="109.15" width="16" height="16" fill="red" rx="3" ry="3"></rect>,<rect x="209.15" y="109.15" width="16" height="16" fill="red" rx="3" ry="3"></rect>,<rect x="234.15" y="109.15" width="16" height="16" fill="red" rx="3" ry="3"></rect>,<rect x="259.15" y="109.15" width="16" height="16" fill="red" rx="3" ry="3"></rect>,<rect x="284.15" y="109.15" width="16" height="16" fill="red" rx="3" ry="3"></rect>,<rect x="309.15" y="109.15" width="16" height="16" fill="red" rx="3" ry="3"></rect>,<rect x="334.15" y="109.15" width="16" height="16" fill="red" rx="3" ry="3"></rect>,<rect x="359.15" y="109.15" width="16" height="16" fill="red" rx="3" ry="3"></rect>,<rect x="9.149999999999999" y="134.15" width="16" height="16" fill="red" rx="3" ry="3"></rect>,<rect x="34.15" y="134.15" width="16" height="16" fill="red" rx="3" ry="3"></rect>,<rect x="59.15" y="134.15" width="16" height="16" fill="red" rx="3" ry="3"></rect>,<rect x="84.15" y="134.15" width="16" height="16" fill="red" rx="3" ry="3"></rect>,<rect x="109.15" y="134.15" width="16" height="16" fill="red" rx="3" ry="3"></rect>,<rect x="134.15" y="134.15" width="16" height="16" fill="red" rx="3" ry="3"></rect>,<rect x="159.15" y="134.15" width="16" height="16" fill="red" rx="3" ry="3"></rect>,<rect x="184.15" y="134.15" width="16" height="16" fill="red" rx="3" ry="3"></rect>,<rect x="209.15" y="134.15" width="16" height="16" fill="red" rx="3" ry="3"></rect>,<rect x="234.15" y="134.15" width="16" height="16" fill="red" rx="3" ry="3"></rect>,<rect x="259.15" y="134.15" width="16" height="16" fill="red" rx="3" ry="3"></rect>,<rect x="284.15" y="134.15" width="16" height="16" fill="red" rx="3" ry="3"></rect>,<rect x="309.15" y="134.15" width="16" height="16" fill="red" rx="3" ry="3"></rect>,<rect x="334.15" y="134.15" width="16" height="16" fill="red" rx="3" ry="3"></rect>,<rect x="359.15" y="134.15" width="16" height="16" fill="red" rx="3" ry="3"></rect>,<rect x="9.149999999999999" y="159.15" width="16" height="16" fill="red" rx="3" ry="3"></rect>,<rect x="34.15" y="159.15" width="16" height="16" fill="red" rx="3" ry="3"></rect>,<rect x="59.15" y="159.15" width="16" height="16" fill="red" rx="3" ry="3"></rect>,<rect x="84.15" y="159.15" width="16" height="16" fill="red" rx="3" ry="3"></rect>,<rect x="109.15" y="159.15" width="16" height="16" fill="red" rx="3" ry="3"></rect>,<rect x="134.15" y="159.15" width="16" height="16" fill="red" rx="3" ry="3"></rect>,<rect x="159.15" y="159.15" width="16" height="16" fill="red" rx="3" ry="3"></rect>,<rect x="184.15" y="159.15" width="16" height="16" fill="red" rx="3" ry="3"></rect>,<rect x="209.15" y="159.15" width="16" height="16" fill="red" rx="3" ry="3"></rect>,<rect x="234.15" y="159.15" width="16" height="16" fill="red" rx="3" ry="3"></rect>,<rect x="259.15" y="159.15" width="16" height="16" fill="red" rx="3" ry="3"></rect>,<rect x="284.15" y="159.15" width="16" height="16" fill="red" rx="3" ry="3"></rect>,<rect x="309.15" y="159.15" width="16" height="16" fill="red" rx="3" ry="3"></rect>,<rect x="334.15" y="159.15" width="16" height="16" fill="red" rx="3" ry="3"></rect>,<rect x="359.15" y="159.15" width="16" height="16" fill="red" rx="3" ry="3"></rect>,<rect x="9.149999999999999" y="184.15" width="16" height="16" fill="red" rx="3" ry="3"></rect>,<rect x="34.15" y="184.15" width="16" height="16" fill="red" rx="3" ry="3"></rect>,<rect x="59.15" y="184.15" width="16" height="16" fill="red" rx="3" ry="3"></rect>,<rect x="84.15" y="184.15" width="16" height="16" fill="red" rx="3" ry="3"></rect>,<rect x="109.15" y="184.15" width="16" height="16" fill="red" rx="3" ry="3"></rect>,<rect x="134.15" y="184.15" width="16" height="16" fill="red" rx="3" ry="3"></rect>,<rect x="159.15" y="184.15" width="16" height="16" fill="red" rx="3" ry="3"></rect>,<rect x="184.15" y="184.15" width="16" height="16" fill="red" rx="3" ry="3"></rect>,<rect x="209.15" y="184.15" width="16" height="16" fill="red" rx="3" ry="3"></rect>,<rect x="234.15" y="184.15" width="16" height="16" fill="red" rx="3" ry="3"></rect>,<rect x="259.15" y="184.15" width="16" height="16" fill="red" rx="3" ry="3"></rect>,<rect x="284.15" y="184.15" width="16" height="16" fill="red" rx="3" ry="3"></rect>,<rect x="309.15" y="184.15" width="16" height="16" fill="red" rx="3" ry="3"></rect>,<rect x="334.15" y="184.15" width="16" height="16" fill="red" rx="3" ry="3"></rect>,<rect x="359.15" y="184.15" width="16" height="16" fill="red" rx="3" ry="3"></rect>,<rect x="9.149999999999999" y="209.15" width="16" height="16" fill="red" rx="3" ry="3"></rect>,<rect x="34.15" y="209.15" width="16" height="16" fill="red" rx="3" ry="3"></rect>,<rect x="59.15" y="209.15" width="16" height="16" fill="red" rx="3" ry="3"></rect>,<rect x="84.15" y="209.15" width="16" height="16" fill="red" rx="3" ry="3"></rect>,<rect x="109.15" y="209.15" width="16" height="16" fill="red" rx="3" ry="3"></rect>,<rect x="134.15" y="209.15" width="16" height="16" fill="red" rx="3" ry="3"></rect>,<rect x="159.15" y="209.15" width="16" height="16" fill="red" rx="3" ry="3"></rect>,<rect x="184.15" y="209.15" width="16" height="16" fill="red" rx="3" ry="3"></rect>,<rect x="209.15" y="209.15" width="16" height="16" fill="red" rx="3" ry="3"></rect>,<rect x="234.15" y="209.15" width="16" height="16" fill="red" rx="3" ry="3"></rect>,<rect x="259.15" y="209.15" width="16" height="16" fill="red" rx="3" ry="3"></rect>,<rect x="284.15" y="209.15" width="16" height="16" fill="red" rx="3" ry="3"></rect>,<rect x="309.15" y="209.15" width="16" height="16" fill="red" rx="3" ry="3"></rect>,<rect x="334.15" y="209.15" width="16" height="16" fill="red" rx="3" ry="3"></rect>,<rect x="359.15" y="209.15" width="16" height="16" fill="red" rx="3" ry="3"></rect>,<rect x="9.149999999999999" y="234.15" width="16" height="16" fill="red" rx="3" ry="3"></rect>,<rect x="34.15" y="234.15" width="16" height="16" fill="red" rx="3" ry="3"></rect>,<rect x="59.15" y="234.15" width="16" height="16" fill="red" rx="3" ry="3"></rect>,<rect x="84.15" y="234.15" width="16" height="16" fill="red" rx="3" ry="3"></rect>,<rect x="109.15" y="234.15" width="16" height="16" fill="red" rx="3" ry="3"></rect>,<rect x="134.15" y="234.15" width="16" height="16" fill="red" rx="3" ry="3"></rect>,<rect x="159.15" y="234.15" width="16" height="16" fill="red" rx="3" ry="3"></rect>,<rect x="184.15" y="234.15" width="16" height="16" fill="red" rx="3" ry="3"></rect>,<rect x="209.15" y="234.15" width="16" height="16" fill="red" rx="3" ry="3"></rect>,<rect x="234.15" y="234.15" width="16" height="16" fill="red" rx="3" ry="3"></rect>,<rect x="259.15" y="234.15" width="16" height="16" fill="red" rx="3" ry="3"></rect>,<rect x="284.15" y="234.15" width="16" height="16" fill="red" rx="3" ry="3"></rect>,<rect x="309.15" y="234.15" width="16" height="16" fill="red" rx="3" ry="3"></rect>,<rect x="334.15" y="234.15" width="16" height="16" fill="red" rx="3" ry="3"></rect>,<rect x="359.15" y="234.15" width="16" height="16" fill="red" rx="3" ry="3"></rect>,<rect x="9.149999999999999" y="259.15" width="16" height="16" fill="red" rx="3" ry="3"></rect>,<rect x="34.15" y="259.15" width="16" height="16" fill="red" rx="3" ry="3"></rect>,<rect x="59.15" y="259.15" width="16" height="16" fill="red" rx="3" ry="3"></rect>,<rect x="84.15" y="259.15" width="16" height="16" fill="red" rx="3" ry="3"></rect>,<rect x="109.15" y="259.15" width="16" height="16" fill="red" rx="3" ry="3"></rect>,<rect x="134.15" y="259.15" width="16" height="16" fill="red" rx="3" ry="3"></rect>,<rect x="159.15" y="259.15" width="16" height="16" fill="red" rx="3" ry="3"></rect>,<rect x="184.15" y="259.15" width="16" height="16" fill="red" rx="3" ry="3"></rect>,<rect x="209.15" y="259.15" width="16" height="16" fill="red" rx="3" ry="3"></rect>,<rect x="234.15" y="259.15" width="16" height="16" fill="red" rx="3" ry="3"></rect>,<rect x="259.15" y="259.15" width="16" height="16" fill="red" rx="3" ry="3"></rect>,<rect x="284.15" y="259.15" width="16" height="16" fill="red" rx="3" ry="3"></rect>,<rect x="309.15" y="259.15" width="16" height="16" fill="red" rx="3" ry="3"></rect>,<rect x="334.15" y="259.15" width="16" height="16" fill="red" rx="3" ry="3"></rect>,<rect x="359.15" y="259.15" width="16" height="16" fill="red" rx="3" ry="3"></rect>,<rect x="9.149999999999999" y="284.15" width="16" height="16" fill="red" rx="3" ry="3"></rect>,<rect x="34.15" y="284.15" width="16" height="16" fill="red" rx="3" ry="3"></rect>,<rect x="59.15" y="284.15" width="16" height="16" fill="red" rx="3" ry="3"></rect>,<rect x="84.15" y="284.15" width="16" height="16" fill="red" rx="3" ry="3"></rect>,<rect x="109.15" y="284.15" width="16" height="16" fill="red" rx="3" ry="3"></rect>,<rect x="134.15" y="284.15" width="16" height="16" fill="red" rx="3" ry="3"></rect>,<rect x="159.15" y="284.15" width="16" height="16" fill="red" rx="3" ry="3"></rect>,<rect x="184.15" y="284.15" width="16" height="16" fill="red" rx="3" ry="3"></rect>,<rect x="209.15" y="284.15" width="16" height="16" fill="red" rx="3" ry="3"></rect>,<rect x="234.15" y="284.15" width="16" height="16" fill="red" rx="3" ry="3"></rect>,<rect x="259.15" y="284.15" width="16" height="16" fill="red" rx="3" ry="3"></rect>,<rect x="284.15" y="284.15" width="16" height="16" fill="red" rx="3" ry="3"></rect>,<rect x="309.15" y="284.15" width="16" height="16" fill="red" rx="3" ry="3"></rect>,<rect x="334.15" y="284.15" width="16" height="16" fill="red" rx="3" ry="3"></rect>,<rect x="359.15" y="284.15" width="16" height="16" fill="red" rx="3" ry="3"></rect>,<rect x="9.149999999999999" y="309.15" width="16" height="16" fill="red" rx="3" ry="3"></rect>,<rect x="34.15" y="309.15" width="16" height="16" fill="red" rx="3" ry="3"></rect>,<rect x="59.15" y="309.15" width="16" height="16" fill="red" rx="3" ry="3"></rect>,<rect x="84.15" y="309.15" width="16" height="16" fill="red" rx="3" ry="3"></rect>,<rect x="109.15" y="309.15" width="16" height="16" fill="red" rx="3" ry="3"></rect>,<rect x="134.15" y="309.15" width="16" height="16" fill="red" rx="3" ry="3"></rect>,<rect x="159.15" y="309.15" width="16" height="16" fill="red" rx="3" ry="3"></rect>,<rect x="184.15" y="309.15" width="16" height="16" fill="red" rx="3" ry="3"></rect>,<rect x="209.15" y="309.15" width="16" height="16" fill="red" rx="3" ry="3"></rect>,<rect x="234.15" y="309.15" width="16" height="16" fill="red" rx="3" ry="3"></rect>,<rect x="259.15" y="309.15" width="16" height="16" fill="red" rx="3" ry="3"></rect>,<rect x="284.15" y="309.15" width="16" height="16" fill="red" rx="3" ry="3"></rect>,<rect x="309.15" y="309.15" width="16" height="16" fill="red" rx="3" ry="3"></rect>,<rect x="334.15" y="309.15" width="16" height="16" fill="red" rx="3" ry="3"></rect>,<rect x="359.15" y="309.15" width="16" height="16" fill="red" rx="3" ry="3"></rect>,<rect x="9.149999999999999" y="334.15" width="16" height="16" fill="red" rx="3" ry="3"></rect>,<rect x="34.15" y="334.15" width="16" height="16" fill="red" rx="3" ry="3"></rect>,<rect x="59.15" y="334.15" width="16" height="16" fill="red" rx="3" ry="3"></rect>,<rect x="84.15" y="334.15" width="16" height="16" fill="red" rx="3" ry="3"></rect>,<rect x="109.15" y="334.15" width="16" height="16" fill="red" rx="3" ry="3"></rect>,<rect x="134.15" y="334.15" width="16" height="16" fill="red" rx="3" ry="3"></rect>,<rect x="159.15" y="334.15" width="16" height="16" fill="red" rx="3" ry="3"></rect>,<rect x="184.15" y="334.15" width="16" height="16" fill="red" rx="3" ry="3"></rect>,<rect x="209.15" y="334.15" width="16" height="16" fill="red" rx="3" ry="3"></rect>,<rect x="234.15" y="334.15" width="16" height="16" fill="red" rx="3" ry="3"></rect>,<rect x="259.15" y="334.15" width="16" height="16" fill="red" rx="3" ry="3"></rect>,<rect x="284.15" y="334.15" width="16" height="16" fill="red" rx="3" ry="3"></rect>,<rect x="309.15" y="334.15" width="16" height="16" fill="red" rx="3" ry="3"></rect>,<rect x="334.15" y="334.15" width="16" height="16" fill="red" rx="3" ry="3"></rect>,<rect x="359.15" y="334.15" width="16" height="16" fill="red" rx="3" ry="3"></rect>,<rect x="9.149999999999999" y="359.15" width="16" height="16" fill="red" rx="3" ry="3"></rect>,<rect x="34.15" y="359.15" width="16" height="16" fill="red" rx="3" ry="3"></rect>,<rect x="59.15" y="359.15" width="16" height="16" fill="red" rx="3" ry="3"></rect>,<rect x="84.15" y="359.15" width="16" height="16" fill="red" rx="3" ry="3"></rect>,<rect x="109.15" y="359.15" width="16" height="16" fill="red" rx="3" ry="3"></rect>,<rect x="134.15" y="359.15" width="16" height="16" fill="red" rx="3" ry="3"></rect>,<rect x="159.15" y="359.15" width="16" height="16" fill="red" rx="3" ry="3"></rect>,<rect x="184.15" y="359.15" width="16" height="16" fill="red" rx="3" ry="3"></rect>,<rect x="209.15" y="359.15" width="16" height="16" fill="red" rx="3" ry="3"></rect>,<rect x="234.15" y="359.15" width="16" height="16" fill="red" rx="3" ry="3"></rect>,<rect x="259.15" y="359.15" width="16" height="16" fill="red" rx="3" ry="3"></rect>,<rect x="284.15" y="359.15" width="16" height="16" fill="red" rx="3" ry="3"></rect>,<rect x="309.15" y="359.15" width="16" height="16" fill="red" rx="3" ry="3"></rect>,<rect x="334.15" y="359.15" width="16" height="16" fill="red" rx="3" ry="3"></rect>,<rect x="359.15" y="359.15" width="16" height="16" fill="red" rx="3" ry="3"></rect>,<rect x="9.149999999999999" y="384.15" width="16" height="16" fill="red" rx="3" ry="3"></rect>,<rect x="34.15" y="384.15" width="16" height="16" fill="red" rx="3" ry="3"></rect>,<rect x="59.15" y="384.15" width="16" height="16" fill="red" rx="3" ry="3"></rect>,<rect x="84.15" y="384.15" width="16" height="16" fill="red" rx="3" ry="3"></rect>,<rect x="109.15" y="384.15" width="16" height="16" fill="red" rx="3" ry="3"></rect>,<rect x="134.15" y="384.15" width="16" height="16" fill="red" rx="3" ry="3"></rect>,<rect x="159.15" y="384.15" width="16" height="16" fill="red" rx="3" ry="3"></rect>,<rect x="184.15" y="384.15" width="16" height="16" fill="red" rx="3" ry="3"></rect>,<rect x="209.15" y="384.15" width="16" height="16" fill="red" rx="3" ry="3"></rect>,<rect x="234.15" y="384.15" width="16" height="16" fill="red" rx="3" ry="3"></rect>,<rect x="259.15" y="384.15" width="16" height="16" fill="red" rx="3" ry="3"></rect>,<rect x="284.15" y="384.15" width="16" height="16" fill="red" rx="3" ry="3"></rect>,<rect x="309.15" y="384.15" width="16" height="16" fill="red" rx="3" ry="3"></rect>,<rect x="334.15" y="384.15" width="16" height="16" fill="red" rx="3" ry="3"></rect>,<rect x="359.15" y="384.15" width="16" height="16" fill="red" rx="3" ry="3"></rect>,<rect x="9.149999999999999" y="409.15" width="16" height="16" fill="red" rx="3" ry="3"></rect>,<rect x="34.15" y="409.15" width="16" height="16" fill="red" rx="3" ry="3"></rect>,<rect x="59.15" y="409.15" width="16" height="16" fill="red" rx="3" ry="3"></rect>,<rect x="84.15" y="409.15" width="16" height="16" fill="red" rx="3" ry="3"></rect>,<rect x="109.15" y="409.15" width="16" height="16" fill="red" rx="3" ry="3"></rect>,<rect x="134.15" y="409.15" width="16" height="16" fill="red" rx="3" ry="3"></rect>,<rect x="159.15" y="409.15" width="16" height="16" fill="red" rx="3" ry="3"></rect>,<rect x="184.15" y="409.15" width="16" height="16" fill="red" rx="3" ry="3"></rect>,<rect x="209.15" y="409.15" width="16" height="16" fill="red" rx="3" ry="3"></rect>,<rect x="234.15" y="409.15" width="16" height="16" fill="red" rx="3" ry="3"></rect>,<rect x="259.15" y="409.15" width="16" height="16" fill="red" rx="3" ry="3"></rect>,<rect x="284.15" y="409.15" width="16" height="16" fill="red" rx="3" ry="3"></rect>,<rect x="309.15" y="409.15" width="16" height="16" fill="red" rx="3" ry="3"></rect>,<rect x="334.15" y="409.15" width="16" height="16" fill="red" rx="3" ry="3"></rect>,<rect x="359.15" y="409.15" width="16" height="16" fill="red" rx="3" ry="3"></rect>,<rect x="9.149999999999999" y="434.15" width="16" height="16" fill="red" rx="3" ry="3"></rect>,<rect x="34.15" y="434.15" width="16" height="16" fill="red" rx="3" ry="3"></rect>,<rect x="59.15" y="434.15" width="16" height="16" fill="red" rx="3" ry="3"></rect>,<rect x="84.15" y="434.15" width="16" height="16" fill="red" rx="3" ry="3"></rect>,<rect x="109.15" y="434.15" width="16" height="16" fill="red" rx="3" ry="3"></rect>,<rect x="134.15" y="434.15" width="16" height="16" fill="red" rx="3" ry="3"></rect>,<rect x="159.15" y="434.15" width="16" height="16" fill="red" rx="3" ry="3"></rect>,<rect x="184.15" y="434.15" width="16" height="16" fill="red" rx="3" ry="3"></rect>,<rect x="209.15" y="434.15" width="16" height="16" fill="red" rx="3" ry="3"></rect>,<rect x="234.15" y="434.15" width="16" height="16" fill="red" rx="3" ry="3"></rect>,<rect x="259.15" y="434.15" width="16" height="16" fill="red" rx="3" ry="3"></rect>,<rect x="284.15" y="434.15" width="16" height="16" fill="red" rx="3" ry="3"></rect>,<rect x="309.15" y="434.15" width="16" height="16" fill="red" rx="3" ry="3"></rect>,<rect x="334.15" y="434.15" width="16" height="16" fill="red" rx="3" ry="3"></rect>,<rect x="359.15" y="434.15" width="16" height="16" fill="red" rx="3" ry="3"></rect>,<rect x="9.149999999999999" y="459.15" width="16" height="16" fill="red" rx="3" ry="3"></rect>,<rect x="34.15" y="459.15" width="16" height="16" fill="red" rx="3" ry="3"></rect>,<rect x="59.15" y="459.15" width="16" height="16" fill="red" rx="3" ry="3"></rect>,<rect x="84.15" y="459.15" width="16" height="16" fill="red" rx="3" ry="3"></rect>,<rect x="109.15" y="459.15" width="16" height="16" fill="red" rx="3" ry="3"></rect>,<rect x="134.15" y="459.15" width="16" height="16" fill="red" rx="3" ry="3"></rect>,<rect x="159.15" y="459.15" width="16" height="16" fill="red" rx="3" ry="3"></rect>,<rect x="184.15" y="459.15" width="16" height="16" fill="red" rx="3" ry="3"></rect>,<rect x="209.15" y="459.15" width="16" height="16" fill="red" rx="3" ry="3"></rect>,<rect x="234.15" y="459.15" width="16" height="16" fill="red" rx="3" ry="3"></rect>,<rect x="259.15" y="459.15" width="16" height="16" fill="red" rx="3" ry="3"></rect>,<rect x="284.15" y="459.15" width="16" height="16" fill="red" rx="3" ry="3"></rect>,<rect x="309.15" y="459.15" width="16" height="16" fill="red" rx="3" ry="3"></rect>,<rect x="334.15" y="459.15" width="16" height="16" fill="red" rx="3" ry="3"></rect>,<rect x="359.15" y="459.15" width="16" height="16" fill="red" rx="3" ry="3"></rect>,<rect x="9.149999999999999" y="484.15" width="16" height="16" fill="red" rx="3" ry="3"></rect>,<rect x="34.15" y="484.15" width="16" height="16" fill="red" rx="3" ry="3"></rect>,<rect x="59.15" y="484.15" width="16" height="16" fill="red" rx="3" ry="3"></rect>,<rect x="84.15" y="484.15" width="16" height="16" fill="red" rx="3" ry="3"></rect>,<rect x="109.15" y="484.15" width="16" height="16" fill="red" rx="3" ry="3"></rect>,<rect x="134.15" y="484.15" width="16" height="16" fill="red" rx="3" ry="3"></rect>,<rect x="159.15" y="484.15" width="16" height="16" fill="red" rx="3" ry="3"></rect>,<rect x="184.15" y="484.15" width="16" height="16" fill="red" rx="3" ry="3"></rect>,<rect x="209.15" y="484.15" width="16" height="16" fill="red" rx="3" ry="3"></rect>,<rect x="234.15" y="484.15" width="16" height="16" fill="red" rx="3" ry="3"></rect>,<rect x="259.15" y="484.15" width="16" height="16" fill="red" rx="3" ry="3"></rect>,<rect x="284.15" y="484.15" width="16" height="16" fill="red" rx="3" ry="3"></rect>,<rect x="309.15" y="484.15" width="16" height="16" fill="red" rx="3" ry="3"></rect>,<rect x="334.15" y="484.15" width="16" height="16" fill="red" rx="3" ry="3"></rect>,<rect x="359.15" y="484.15" width="16" height="16" fill="red" rx="3" ry="3"></rect></svg>