<?xml version="1.0" encoding="utf-8"?>
<!-- Generator: Adobe Illustrator 19.2.0, SVG Export Plug-In . SVG Version: 6.00 Build 0)  -->
<svg version="1.1" xmlns="http://www.w3.org/2000/svg" xmlns:xlink="http://www.w3.org/1999/xlink" x="0px" y="0px"
	 viewBox="0 0 500 500" style="enable-background:new 0 0 500 500;" xml:space="preserve">
<style type="text/css">
	.st0{fill:#3FA9F5;}
	.st1{font-family:'Silom';}
	.st2{font-size:218.2476px;}
	.st3{fill:#603813;stroke:#42210B;stroke-miterlimit:10;}
	.st4{fill:#FFEDDE;stroke:#DDB997;stroke-miterlimit:10;}
	.st5{fill:#FFFFFF;}
	.st6{fill:url(#SVGID_1_);}
	.st7{fill:url(#SVGID_2_);}
	.st8{fill:url(#SVGID_3_);}
	.st9{fill:url(#SVGID_4_);}
	.st10{fill:url(#SVGID_5_);}
</style>
<g id="Layer_1">
	<text transform="matrix(1.4353 0 0 1 147.3214 302.7006)" class="st0 st1 st2">H</text>
</g>
<g id="Layer_2">
	<path class="st3" d="M244.2,352.9l35.9-44.3l4.6-37.4c0,0-0.7-7.3,8-8c8.7-0.7,9.9,9.4,9.9,9.4s-3.3,24.9,1.5,28.5
		c4.8,3.6,7.9,0.4,15.4-10.5c7.5-10.9,7.4-42.9,7.4-42.9s0.9-11.3,7.7-11.7s9.7,8.5,9.7,8.5s3.3-7.1,9.1-5.5s7.2,9.5,7.2,9.5
		s2.9-6.8,8.4-5.2c5.5,1.5,4.6,11.9,4.6,11.9l-0.9,18.9c0,0,0.1-8.9,6.1-9c5.9-0.1,7,14.3,4.2,20.3s-8.1,18.2-14.3,27.7
		s-17.8,17.8-26.3,22.6c-8.4,4.8-36.9,6.7-36.9,6.7l-28.7,43.7L244.2,352.9z"/>
	<path class="st4" d="M254.2,353.9l-32-46.8l-2.4-37.6c0,0,1-7.2-7.2-8.6c-8.3-1.3-10,8.6-10,8.6s1.8,25-3,28.2
		c-4.8,3.2-7.6-0.2-14.1-11.5c-6.5-11.4-4.8-43.3-4.8-43.3s-0.3-11.3-6.7-12.2c-6.5-0.9-9.7,7.7-9.7,7.7s-2.8-7.3-8.4-6.2
		s-7.4,9-7.4,9s-2.4-7-7.8-5.8s-5,11.6-5,11.6l-0.2,18.9c0,0,0.4-8.8-5.3-9.4c-5.7-0.6-5.1,13-5.1,19.9s6.8,18.8,12.2,28.6
		s16.1,19,23.9,24.4c7.8,5.4,34.9,9.4,34.9,9.4l25.1,45.6L254.2,353.9z"/>
</g>
<g id="Layer_3">
	<path class="st5" d="M246.4,399.7c0,0-35.2-1.3-28.3-31.8c6.9-30.5,35.6-50.2,35.6-50.2s20.4,22.3,22.7,47.2
		C278.6,389.8,246.4,399.7,246.4,399.7z"/>
	<path class="st5" d="M238.2,395.9c0,0-13.1,32.7-39.5,16s-35.2-50.5-35.2-50.5s27.9-11.7,52.1-5.4
		C239.8,362.3,238.2,395.9,238.2,395.9z"/>
	<path class="st5" d="M254.1,407.9c0,0-25.3-24.5,0.2-42.6s60.1-13.5,60.1-13.5s0.3,30.3-14.7,50.3
		C284.6,422.1,254.1,407.9,254.1,407.9z"/>
	<path class="st5" d="M241.6,393.6c0,0,25.3,24.6-0.3,42.6s-60.1,13.3-60.1,13.3s-0.2-30.3,14.9-50.2S241.6,393.6,241.6,393.6z"/>
	<path class="st5" d="M234,399.1c0,0,21.9-27.6,42.4-4c20.5,23.6,19.4,58.5,19.4,58.5s-30.1,3.2-51.5-9.7S234,399.1,234,399.1z"/>
	<linearGradient id="SVGID_1_" gradientUnits="userSpaceOnUse" x1="217.1256" y1="358.691" x2="276.4348" y2="358.691">
		<stop  offset="0" style="stop-color:#FF7BAC"/>
		<stop  offset="0.291" style="stop-color:#FFA5C6;stop-opacity:0.709"/>
		<stop  offset="0.7725" style="stop-color:#FFE6EF;stop-opacity:0.2275"/>
		<stop  offset="1" style="stop-color:#FFFFFF;stop-opacity:0"/>
	</linearGradient>
	<path class="st6" d="M246.4,399.7c0,0-35.2-1.3-28.3-31.8c6.9-30.5,35.6-50.2,35.6-50.2s20.4,22.3,22.7,47.2
		C278.6,389.8,246.4,399.7,246.4,399.7z"/>
	
		<linearGradient id="SVGID_2_" gradientUnits="userSpaceOnUse" x1="-331.3521" y1="567.0057" x2="-272.0429" y2="567.0057" gradientTransform="matrix(0.3373 -0.9414 0.9414 0.3373 -232.2243 -93.5868)">
		<stop  offset="0" style="stop-color:#FF7BAC"/>
		<stop  offset="0.291" style="stop-color:#FFA5C6;stop-opacity:0.709"/>
		<stop  offset="0.7725" style="stop-color:#FFE6EF;stop-opacity:0.2275"/>
		<stop  offset="1" style="stop-color:#FFFFFF;stop-opacity:0"/>
	</linearGradient>
	<path class="st7" d="M238.2,395.9c0,0-13.1,32.7-39.5,16s-35.2-50.5-35.2-50.5s27.9-11.7,52.1-5.4
		C239.8,362.3,238.2,395.9,238.2,395.9z"/>
	
		<linearGradient id="SVGID_3_" gradientUnits="userSpaceOnUse" x1="346.6552" y1="103.0931" x2="405.9644" y2="103.0931" gradientTransform="matrix(0.7433 0.669 -0.669 0.7433 71.0522 49.3148)">
		<stop  offset="0" style="stop-color:#FF7BAC"/>
		<stop  offset="0.291" style="stop-color:#FFA5C6;stop-opacity:0.709"/>
		<stop  offset="0.7725" style="stop-color:#FFE6EF;stop-opacity:0.2275"/>
		<stop  offset="1" style="stop-color:#FFFFFF;stop-opacity:0"/>
	</linearGradient>
	<path class="st8" d="M254.1,407.9c0,0-25.3-24.5,0.2-42.6s60.1-13.5,60.1-13.5s0.3,30.3-14.7,50.3
		C284.6,422.1,254.1,407.9,254.1,407.9z"/>
	
		<linearGradient id="SVGID_4_" gradientUnits="userSpaceOnUse" x1="-492.4682" y1="240.2073" x2="-433.1589" y2="240.2073" gradientTransform="matrix(-0.7418 -0.6706 0.6706 -0.7418 -290.6197 291.4916)">
		<stop  offset="0" style="stop-color:#FF7BAC"/>
		<stop  offset="0.291" style="stop-color:#FFA5C6;stop-opacity:0.709"/>
		<stop  offset="0.7725" style="stop-color:#FFE6EF;stop-opacity:0.2275"/>
		<stop  offset="1" style="stop-color:#FFFFFF;stop-opacity:0"/>
	</linearGradient>
	<path class="st9" d="M241.6,393.6c0,0,25.3,24.6-0.3,42.6s-60.1,13.3-60.1,13.3s-0.2-30.3,14.9-50.2S241.6,393.6,241.6,393.6z"/>
	
		<linearGradient id="SVGID_5_" gradientUnits="userSpaceOnUse" x1="-146.5207" y1="-172.5034" x2="-87.2115" y2="-172.5034" gradientTransform="matrix(-0.5923 0.8058 -0.8058 -0.5923 58.5709 415.6907)">
		<stop  offset="0" style="stop-color:#FF7BAC"/>
		<stop  offset="0.291" style="stop-color:#FFA5C6;stop-opacity:0.709"/>
		<stop  offset="0.7725" style="stop-color:#FFE6EF;stop-opacity:0.2275"/>
		<stop  offset="1" style="stop-color:#FFFFFF;stop-opacity:0"/>
	</linearGradient>
	<path class="st10" d="M234,399.1c0,0,21.9-27.6,42.4-4c20.5,23.6,19.4,58.5,19.4,58.5s-30.1,3.2-51.5-9.7S234,399.1,234,399.1z"/>
</g>
</svg>
