<svg xmlns="http://www.w3.org/2000/svg" xmlns:xlink="http://www.w3.org/1999/xlink" height="320" width="320" viewbox="0 0 320 320">
    <rect width="320" height="320" fill="black" rx='60' ry='60'/>
<!--Icon-->
    <g transform="translate(20 0)">
        <path d="M 150 95          C 119 95 110 80 88 80          C 60 80 12 107 12 162          C 12 240 60 310 92 311          C 119 310 121 300 145 300          C 170 300 173 310 201 310          C 220 310 255 260 259 230          C 219 214 203 124 259 110                    C 245 90 230 80 207 80          C 180 80 170 95 150 95" fill="white" stroke="black" stroke-width="1" stroke-linejoin="round" stroke-linecap="round"/>
        <path d="M 197 10          C 160 10 129 50 135 85          C 170 80 200 50 197 10" fill="white" stroke="black" stroke-width="1" stroke-linejoin="round" stroke-linecap="round"/>
    </g>
</svg>